<svg width="111" height="112" viewBox="0 0 111 112" fill="none" xmlns="http://www.w3.org/2000/svg">
  <g filter="url(#filter0_dd_1_12)">
    <path d="M18.3027 50.1702C11.4654 24.653 15.469 17.7185 40.9863 10.8811L50.6087 8.30283C76.1259 1.4655 83.0604 5.46915 89.8978 30.9864L92.4761 40.6088C99.3134 66.126 95.3097 73.0606 69.7925 79.8979L60.1701 82.4762C34.6529 89.3135 27.7183 85.3099 20.881 59.7926L18.3027 50.1702Z" fill="url(#paint0_linear_1_12)"/>
    <path d="M40.5447 9.23329C34.1278 10.9527 28.9504 12.7062 24.9269 14.8034C20.8857 16.9097 17.9141 19.4114 16.0341 22.6677C14.1541 25.924 13.4734 29.7484 13.6698 34.3013C13.8653 38.8343 14.9355 44.1949 16.6549 50.6118L19.2332 60.2342C20.9526 66.6511 22.7061 71.8285 24.8033 75.852C26.9096 79.8932 29.4113 82.8648 32.6676 84.7448C35.9239 86.6248 39.7482 87.3055 44.3011 87.1091C48.8342 86.9136 54.1947 85.8434 60.6117 84.124L70.234 81.5457C76.651 79.8263 81.8284 78.0728 85.8519 75.9756C89.893 73.8693 92.8646 71.3676 94.7447 68.1113C96.6247 64.855 97.3054 61.0307 97.109 56.4778C96.9135 51.9447 95.8433 46.5842 94.1239 40.1672L91.5456 30.5449C89.8262 24.1279 88.0727 18.9505 85.9755 14.927C83.8692 10.8859 81.3675 7.91425 78.1112 6.03423C74.8549 4.15422 71.0305 3.47348 66.4776 3.66989C61.9446 3.86544 56.584 4.93557 50.1671 6.65498L40.5447 9.23329Z" stroke="url(#paint1_linear_1_12)" stroke-width="3.41195"/>
    <path d="M40.5447 9.23329C34.1278 10.9527 28.9504 12.7062 24.9269 14.8034C20.8857 16.9097 17.9141 19.4114 16.0341 22.6677C14.1541 25.924 13.4734 29.7484 13.6698 34.3013C13.8653 38.8343 14.9355 44.1949 16.6549 50.6118L19.2332 60.2342C20.9526 66.6511 22.7061 71.8285 24.8033 75.852C26.9096 79.8932 29.4113 82.8648 32.6676 84.7448C35.9239 86.6248 39.7482 87.3055 44.3011 87.1091C48.8342 86.9136 54.1947 85.8434 60.6117 84.124L70.234 81.5457C76.651 79.8263 81.8284 78.0728 85.8519 75.9756C89.893 73.8693 92.8646 71.3676 94.7447 68.1113C96.6247 64.855 97.3054 61.0307 97.109 56.4778C96.9135 51.9447 95.8433 46.5842 94.1239 40.1672L91.5456 30.5449C89.8262 24.1279 88.0727 18.9505 85.9755 14.927C83.8692 10.8859 81.3675 7.91425 78.1112 6.03423C74.8549 4.15422 71.0305 3.47348 66.4776 3.66989C61.9446 3.86544 56.584 4.93557 50.1671 6.65498L40.5447 9.23329Z" stroke="url(#paint2_linear_1_12)" stroke-width="3.41195"/>
  </g>
  <path d="M42.5921 48.933L41.9126 46.3969L46.8927 45.0625L45.5336 39.99L50.5137 38.6556L58.6686 69.09L63.6488 67.7555L55.494 37.3211L60.474 35.9867L61.8331 41.0592L66.8134 39.7247L67.4929 42.2609L72.4732 40.9264L70.4345 33.3178L65.4542 34.6523L64.0951 29.5799L59.1148 30.9143L57.7557 25.8419L55.2657 26.5091L54.5861 23.9729L52.0961 24.6401L51.4165 22.1039L46.4363 23.4384L47.1159 25.9746L44.6258 26.6417L45.3054 29.178L42.8153 29.8452L44.1744 34.9176L39.1943 36.252L40.5534 41.3244L35.5732 42.6589L37.6119 50.2675L42.5921 48.933Z" fill="white"/>
  <defs>
    <filter id="filter0_dd_1_12" x="0.528097" y="1.9314" width="109.723" height="109.723" filterUnits="userSpaceOnUse" color-interpolation-filters="sRGB">
      <feFlood flood-opacity="0" result="BackgroundImageFix"/>
      <feColorMatrix in="SourceAlpha" type="matrix" values="0 0 0 0 0 0 0 0 0 0 0 0 0 0 0 0 0 0 127 0" result="hardAlpha"/>
      <feMorphology radius="3.42095" operator="erode" in="SourceAlpha" result="effect1_dropShadow_1_12"/>
      <feOffset dy="4.56127"/>
      <feGaussianBlur stdDeviation="2.85079"/>
      <feComposite in2="hardAlpha" operator="out"/>
      <feColorMatrix type="matrix" values="0 0 0 0 0.0941176 0 0 0 0 0.286275 0 0 0 0 0.654902 0 0 0 0.1 0"/>
      <feBlend mode="luminosity" in2="BackgroundImageFix" result="effect1_dropShadow_1_12"/>
      <feColorMatrix in="SourceAlpha" type="matrix" values="0 0 0 0 0 0 0 0 0 0 0 0 0 0 0 0 0 0 127 0" result="hardAlpha"/>
      <feMorphology radius="2.85079" operator="erode" in="SourceAlpha" result="effect2_dropShadow_1_12"/>
      <feOffset dy="11.4032"/>
      <feGaussianBlur stdDeviation="7.12699"/>
      <feComposite in2="hardAlpha" operator="out"/>
      <feColorMatrix type="matrix" values="0 0 0 0 0.0941176 0 0 0 0 0.286275 0 0 0 0 0.654902 0 0 0 0.4 0"/>
      <feBlend mode="luminosity" in2="effect1_dropShadow_1_12" result="effect2_dropShadow_1_12"/>
      <feBlend mode="normal" in="SourceGraphic" in2="effect2_dropShadow_1_12" result="shape"/>
    </filter>
    <linearGradient id="paint0_linear_1_12" x1="34.9715" y1="-25.4384" x2="64.9813" y2="81.187" gradientUnits="userSpaceOnUse">
      <stop stop-color="#002772"/>
      <stop offset="1" stop-color="#3F81FF"/>
    </linearGradient>
    <linearGradient id="paint1_linear_1_12" x1="45.7975" y1="9.59198" x2="64.9813" y2="81.187" gradientUnits="userSpaceOnUse">
      <stop stop-color="#FFF82E"/>
      <stop offset="1" stop-color="#FFFB7A"/>
    </linearGradient>
    <linearGradient id="paint2_linear_1_12" x1="45.7975" y1="9.59198" x2="64.9813" y2="81.187" gradientUnits="userSpaceOnUse">
      <stop stop-color="#256CF5"/>
      <stop offset="1" stop-color="#6498FA"/>
    </linearGradient>
  </defs>
</svg>