<svg width="111" height="112" viewBox="0 0 111 112" fill="none" xmlns="http://www.w3.org/2000/svg">
  <g filter="url(#filter0_dd_1_19)">
    <path d="M20.8807 30.9863C27.7181 5.46909 34.6526 1.46544 60.1698 8.30277L69.7922 10.8811C95.3095 17.7184 99.3131 24.6529 92.4758 50.1702L89.8975 59.7926C83.0602 85.3098 76.1256 89.3135 50.6084 82.4761L40.986 79.8978C15.4688 73.0605 11.4651 66.126 18.3024 40.6087L20.8807 30.9863Z" fill="url(#paint0_linear_1_19)"/>
    <path d="M60.6114 6.65492C54.1945 4.93551 48.8339 3.86537 44.3009 3.66983C39.748 3.47342 35.9236 4.15415 32.6673 6.03417C29.411 7.91419 26.9093 10.8858 24.803 14.9269C22.7058 18.9504 20.9523 24.1279 19.2329 30.5448L16.6546 40.1672C14.9352 46.5841 13.865 51.9446 13.6695 56.4777C13.4731 61.0306 14.1538 64.8549 16.0338 68.1112C17.9139 71.3675 20.8855 73.8692 24.9266 75.9756C28.9501 78.0728 34.1275 79.8263 40.5445 81.5457L50.1668 84.124C56.5838 85.8434 61.9443 86.9135 66.4774 87.1091C71.0303 87.3055 74.8546 86.6247 78.1109 84.7447C81.3672 82.8647 83.8689 79.8931 85.9752 75.852C88.0724 71.8284 89.8259 66.651 91.5453 60.2341L94.1236 50.6117C95.843 44.1948 96.9132 38.8343 97.1087 34.3012C97.3051 29.7483 96.6244 25.924 94.7444 22.6677C92.8644 19.4114 89.8928 16.9097 85.8516 14.8033C81.8281 12.7061 76.6507 10.9526 70.2338 9.23323L60.6114 6.65492Z" stroke="url(#paint1_linear_1_19)" stroke-width="3.41195"/>
    <path d="M60.6114 6.65492C54.1945 4.93551 48.8339 3.86537 44.3009 3.66983C39.748 3.47342 35.9236 4.15415 32.6673 6.03417C29.411 7.91419 26.9093 10.8858 24.803 14.9269C22.7058 18.9504 20.9523 24.1279 19.2329 30.5448L16.6546 40.1672C14.9352 46.5841 13.865 51.9446 13.6695 56.4777C13.4731 61.0306 14.1538 64.8549 16.0338 68.1112C17.9139 71.3675 20.8855 73.8692 24.9266 75.9756C28.9501 78.0728 34.1275 79.8263 40.5445 81.5457L50.1668 84.124C56.5838 85.8434 61.9443 86.9135 66.4774 87.1091C71.0303 87.3055 74.8546 86.6247 78.1109 84.7447C81.3672 82.8647 83.8689 79.8931 85.9752 75.852C88.0724 71.8284 89.8259 66.651 91.5453 60.2341L94.1236 50.6117C95.843 44.1948 96.9132 38.8343 97.1087 34.3012C97.3051 29.7483 96.6244 25.924 94.7444 22.6677C92.8644 19.4114 89.8928 16.9097 85.8516 14.8033C81.8281 12.7061 76.6507 10.9526 70.2338 9.23323L60.6114 6.65492Z" stroke="url(#paint2_linear_1_19)" stroke-width="3.41195"/>
  </g>
  <path d="M51.6975 65.2308L49.1035 64.5358L48.4085 67.1297L51.0024 67.8247L51.6975 65.2308Z" fill="white"/>
  <path d="M67.9382 66.8082L65.3442 66.1131L64.6492 68.7071L67.2431 69.4021L67.9382 66.8082Z" fill="white"/>
  <path d="M54.9796 63.3359L52.3856 62.6409L51.6906 65.2348L54.2845 65.9299L54.9796 63.3359Z" fill="white"/>
  <path d="M52.391 62.6423L49.7971 61.9473L49.1021 64.5412L51.696 65.2363L52.391 62.6423Z" fill="white"/>
  <path d="M49.7971 61.9473L47.2032 61.2522L46.5081 63.8462L49.1021 64.5412L49.7971 61.9473Z" fill="white"/>
  <path d="M36.8385 58.475L34.2446 57.78L33.5495 60.3739L36.1435 61.069L36.8385 58.475Z" fill="white"/>
  <path d="M71.2271 64.9093L68.6332 64.2142L67.9382 66.8082L70.5321 67.5032L71.2271 64.9093Z" fill="white"/>
  <path d="M68.6332 64.2142L66.0393 63.5192L65.3442 66.1131L67.9382 66.8082L68.6332 64.2142Z" fill="white"/>
  <path d="M66.0449 63.5207L63.451 62.8257L62.756 65.4196L65.3499 66.1147L66.0449 63.5207Z" fill="white"/>
  <path d="M55.6746 60.742L53.0807 60.047L52.3856 62.6409L54.9796 63.3359L55.6746 60.742Z" fill="white"/>
  <path d="M50.4922 59.3534L47.8982 58.6583L47.2032 61.2522L49.7971 61.9473L50.4922 59.3534Z" fill="white"/>
  <path d="M40.1275 56.5762L37.5336 55.8811L36.8385 58.475L39.4325 59.1701L40.1275 56.5762Z" fill="white"/>
  <path d="M37.5336 55.8811L34.9396 55.1861L34.2446 57.78L36.8385 58.475L37.5336 55.8811Z" fill="white"/>
  <path d="M34.945 55.1875L32.3511 54.4925L31.656 57.0864L34.25 57.7815L34.945 55.1875Z" fill="white"/>
  <path d="M71.9207 62.3209L69.3268 61.6258L68.6317 64.2198L71.2257 64.9148L71.9207 62.3209Z" fill="white"/>
  <path d="M66.7385 60.9323L64.1446 60.2373L63.4495 62.8312L66.0435 63.5262L66.7385 60.9323Z" fill="white"/>
  <path d="M58.9621 58.8486L56.3682 58.1536L55.6731 60.7475L58.2671 61.4426L58.9621 58.8486Z" fill="white"/>
  <path d="M56.3682 58.1536L53.7742 57.4585L53.0792 60.0525L55.6731 60.7475L56.3682 58.1536Z" fill="white"/>
  <path d="M53.7796 57.46L51.1857 56.7649L50.4907 59.3589L53.0846 60.0539L53.7796 57.46Z" fill="white"/>
  <path d="M51.1857 56.7649L48.5918 56.0699L47.8967 58.6638L50.4907 59.3589L51.1857 56.7649Z" fill="white"/>
  <path d="M48.5974 56.0714L46.0035 55.3764L45.3085 57.9703L47.9024 58.6654L48.5974 56.0714Z" fill="white"/>
  <path d="M40.8211 53.9877L38.2271 53.2927L37.5321 55.8866L40.126 56.5817L40.8211 53.9877Z" fill="white"/>
  <path d="M35.6386 52.5991L33.0446 51.9041L32.3496 54.498L34.9435 55.193L35.6386 52.5991Z" fill="white"/>
  <path d="M75.2043 60.4205L72.6104 59.7254L71.9153 62.3194L74.5093 63.0144L75.2043 60.4205Z" fill="white"/>
  <path d="M72.6158 59.7269L70.0218 59.0318L69.3268 61.6258L71.9207 62.3209L72.6158 59.7269Z" fill="white"/>
  <path d="M70.0218 59.0318L67.4279 58.3368L66.7328 60.9307L69.3268 61.6258L70.0218 59.0318Z" fill="white"/>
  <path d="M67.4336 58.3383L64.8396 57.6433L64.1446 60.2373L66.7385 60.9323L67.4336 58.3383Z" fill="white"/>
  <path d="M64.8396 57.6433L62.2457 56.9482L61.5506 59.5422L64.1446 60.2373L64.8396 57.6433Z" fill="white"/>
  <path d="M62.2457 56.9482L59.6515 56.2531L58.9565 58.8471L61.5506 59.5422L62.2457 56.9482Z" fill="white"/>
  <path d="M46.6983 52.7823L44.1044 52.0873L43.4093 54.6812L46.0035 55.3764L46.6983 52.7823Z" fill="white"/>
  <path d="M44.1044 52.0873L41.5104 51.3922L40.8154 53.9862L43.4093 54.6812L44.1044 52.0873Z" fill="white"/>
  <path d="M41.5161 51.3938L38.9222 50.6987L38.2271 53.2927L40.8211 53.9877L41.5161 51.3938Z" fill="white"/>
  <path d="M38.9222 50.6987L36.3282 50.0037L35.6332 52.5976L38.2271 53.2927L38.9222 50.6987Z" fill="white"/>
  <path d="M36.3336 50.0051L33.7397 49.3101L33.0446 51.9041L35.6386 52.5991L36.3336 50.0051Z" fill="white"/>
  <path d="M33.7397 49.3101L31.1458 48.615L30.4507 51.209L33.0446 51.9041L33.7397 49.3101Z" fill="white"/>
  <path d="M75.8993 57.8266L73.3054 57.1315L72.6104 59.7254L75.2043 60.4205L75.8993 57.8266Z" fill="white"/>
  <path d="M62.9405 54.3542L60.3465 53.6592L59.6515 56.2531L62.2457 56.9482L62.9405 54.3542Z" fill="white"/>
  <path d="M57.7583 52.9657L55.1643 52.2706L54.4693 54.8646L57.0632 55.5596L57.7583 52.9657Z" fill="white"/>
  <path d="M52.5758 51.577L49.9819 50.882L49.2868 53.4759L51.8808 54.171L52.5758 51.577Z" fill="white"/>
  <path d="M47.3934 50.1884L44.7994 49.4934L44.1044 52.0873L46.6983 52.7823L47.3934 50.1884Z" fill="white"/>
  <path d="M34.4348 46.7162L31.8408 46.0211L31.1458 48.615L33.7397 49.3101L34.4348 46.7162Z" fill="white"/>
  <path d="M74.0044 54.5445L71.4104 53.8495L70.7154 56.4434L73.3093 57.1385L74.0044 54.5445Z" fill="white"/>
  <path d="M71.4104 53.8495L68.8165 53.1545L68.1214 55.7484L70.7154 56.4434L71.4104 53.8495Z" fill="white"/>
  <path d="M63.634 51.7658L61.0401 51.0708L60.3451 53.6647L62.939 54.3598L63.634 51.7658Z" fill="white"/>
  <path d="M48.0869 47.6L45.493 46.9049L44.7979 49.4989L47.3919 50.1939L48.0869 47.6Z" fill="white"/>
  <path d="M40.3108 45.5164L37.7169 44.8213L37.0218 47.4153L39.6158 48.1103L40.3108 45.5164Z" fill="white"/>
  <path d="M37.7223 44.8228L35.1283 44.1277L34.4333 46.7217L37.0272 47.4167L37.7223 44.8228Z" fill="white"/>
  <path d="M72.1055 51.2555L69.5115 50.5605L68.8165 53.1545L71.4104 53.8495L72.1055 51.2555Z" fill="white"/>
  <path d="M69.5172 50.562L66.9233 49.8669L66.2282 52.4609L68.8222 53.1559L69.5172 50.562Z" fill="white"/>
  <path d="M64.3291 49.1718L61.7352 48.4768L61.0401 51.0708L63.634 51.7658L64.3291 49.1718Z" fill="white"/>
  <path d="M55.8633 49.6837L53.2694 48.9886L52.5743 51.5826L55.1683 52.2776L55.8633 49.6837Z" fill="white"/>
  <path d="M56.5584 47.0897L53.9644 46.3946L53.2694 48.9886L55.8633 49.6837L56.5584 47.0897Z" fill="white"/>
  <path d="M48.782 45.006L46.188 44.311L45.493 46.9049L48.0869 47.6L48.782 45.006Z" fill="white"/>
  <path d="M43.5998 43.6174L41.0058 42.9224L40.3108 45.5164L42.9047 46.2114L43.5998 43.6174Z" fill="white"/>
  <path d="M41.0058 42.9224L38.4119 42.2273L37.7169 44.8213L40.3108 45.5164L41.0058 42.9224Z" fill="white"/>
  <path d="M70.2108 47.9736L67.6168 47.2785L66.9218 49.8725L69.5157 50.5675L70.2108 47.9736Z" fill="white"/>
  <path d="M67.6168 47.2785L65.0229 46.5835L64.3279 49.1774L66.9218 49.8725L67.6168 47.2785Z" fill="white"/>
  <path d="M65.0229 46.5835L62.4287 45.8884L61.7337 48.4823L64.3279 49.1774L65.0229 46.5835Z" fill="white"/>
  <path d="M49.4755 42.4176L46.8816 41.7225L46.1865 44.3165L48.7805 45.0115L49.4755 42.4176Z" fill="white"/>
  <path d="M46.8816 41.7225L44.2877 41.0275L43.5926 43.6214L46.1865 44.3165L46.8816 41.7225Z" fill="white"/>
  <path d="M44.2933 41.029L41.6994 40.334L41.0043 42.9279L43.5983 43.623L44.2933 41.029Z" fill="white"/>
  <path d="M68.3119 44.6846L65.718 43.9895L65.0229 46.5835L67.6168 47.2785L68.3119 44.6846Z" fill="white"/>
  <path d="M65.718 43.9895L63.1238 43.2944L62.4287 45.8884L65.0229 46.5835L65.718 43.9895Z" fill="white"/>
  <path d="M57.947 41.9073L55.353 41.2122L54.658 43.8062L57.2519 44.5012L57.947 41.9073Z" fill="white"/>
  <path d="M50.1706 39.8236L47.5766 39.1286L46.8816 41.7225L49.4755 42.4176L50.1706 39.8236Z" fill="white"/>
  <path d="M47.5766 39.1286L44.9827 38.4335L44.2877 41.0275L46.8816 41.7225L47.5766 39.1286Z" fill="white"/>
  <path d="M66.4113 41.401L63.8173 40.706L63.1223 43.2999L65.7162 43.995L66.4113 41.401Z" fill="white"/>
  <path d="M61.2291 40.0125L58.6351 39.3174L57.9401 41.9114L60.534 42.6064L61.2291 40.0125Z" fill="white"/>
  <path d="M56.0466 38.6238L53.4527 37.9288L52.7576 40.5227L55.3516 41.2178L56.0466 38.6238Z" fill="white"/>
  <path d="M50.8642 37.2352L48.2702 36.5401L47.5752 39.1341L50.1691 39.8291L50.8642 37.2352Z" fill="white"/>
  <path d="M67.1063 38.8071L64.5124 38.1121L63.8173 40.706L66.4113 41.401L67.1063 38.8071Z" fill="white"/>
  <path d="M59.3356 36.7249L56.7416 36.0299L56.0466 38.6238L58.6405 39.3189L59.3356 36.7249Z" fill="white"/>
  <path d="M51.5592 34.6413L48.9653 33.9462L48.2702 36.5401L50.8642 37.2352L51.5592 34.6413Z" fill="white"/>
  <path d="M67.8014 36.2131L65.2074 35.5181L64.5124 38.1121L67.1063 38.8071L67.8014 36.2131Z" fill="white"/>
  <path d="M52.2543 32.0473L49.6603 31.3522L48.9653 33.9462L51.5592 34.6413L52.2543 32.0473Z" fill="white"/>
  <path d="M65.9067 32.9312L63.3127 32.2361L62.6177 34.8301L65.2116 35.5251L65.9067 32.9312Z" fill="white"/>
  <path d="M55.542 30.154L52.9481 29.4589L52.253 32.0529L54.847 32.7479L55.542 30.154Z" fill="white"/>
  <path d="M66.6017 30.3373L64.0078 29.6422L63.3127 32.2361L65.9067 32.9312L66.6017 30.3373Z" fill="white"/>
  <path d="M64.0078 29.6422L61.4138 28.9472L60.7188 31.5411L63.3127 32.2361L64.0078 29.6422Z" fill="white"/>
  <path d="M61.4192 28.9486L58.8253 28.2536L58.1303 30.8475L60.7242 31.5426L61.4192 28.9486Z" fill="white"/>
  <path d="M58.8253 28.2536L56.2314 27.5585L55.5363 30.1525L58.1303 30.8475L58.8253 28.2536Z" fill="white"/>
  <path d="M56.237 27.5601L53.6431 26.865L52.9481 29.4589L55.542 30.154L56.237 27.5601Z" fill="white"/>
  <path d="M64.7014 27.0537L62.1074 26.3587L61.4124 28.9526L64.0063 29.6477L64.7014 27.0537Z" fill="white"/>
  <path d="M62.1128 26.3601L59.5189 25.6651L58.8238 28.259L61.4178 28.9541L62.1128 26.3601Z" fill="white"/>
  <path d="M59.5189 25.6651L56.925 24.9701L56.2299 27.564L58.8238 28.259L59.5189 25.6651Z" fill="white"/>
  <path d="M62.8079 23.7662L60.2139 23.0712L59.5189 25.6651L62.1128 26.3601L62.8079 23.7662Z" fill="white"/>
  <defs>
    <filter id="filter0_dd_1_19" x="0.527822" y="1.93134" width="109.723" height="109.723" filterUnits="userSpaceOnUse" color-interpolation-filters="sRGB">
      <feFlood flood-opacity="0" result="BackgroundImageFix"/>
      <feColorMatrix in="SourceAlpha" type="matrix" values="0 0 0 0 0 0 0 0 0 0 0 0 0 0 0 0 0 0 127 0" result="hardAlpha"/>
      <feMorphology radius="3.42095" operator="erode" in="SourceAlpha" result="effect1_dropShadow_1_19"/>
      <feOffset dy="4.56127"/>
      <feGaussianBlur stdDeviation="2.85079"/>
      <feComposite in2="hardAlpha" operator="out"/>
      <feColorMatrix type="matrix" values="0 0 0 0 0.0941176 0 0 0 0 0.286275 0 0 0 0 0.654902 0 0 0 0.1 0"/>
      <feBlend mode="luminosity" in2="BackgroundImageFix" result="effect1_dropShadow_1_19"/>
      <feColorMatrix in="SourceAlpha" type="matrix" values="0 0 0 0 0 0 0 0 0 0 0 0 0 0 0 0 0 0 127 0" result="hardAlpha"/>
      <feMorphology radius="2.85079" operator="erode" in="SourceAlpha" result="effect2_dropShadow_1_19"/>
      <feOffset dy="11.4032"/>
      <feGaussianBlur stdDeviation="7.12699"/>
      <feComposite in2="hardAlpha" operator="out"/>
      <feColorMatrix type="matrix" values="0 0 0 0 0.0941176 0 0 0 0 0.286275 0 0 0 0 0.654902 0 0 0 0.4 0"/>
      <feBlend mode="luminosity" in2="effect1_dropShadow_1_19" result="effect2_dropShadow_1_19"/>
      <feBlend mode="normal" in="SourceGraphic" in2="effect2_dropShadow_1_19" result="shape"/>
    </filter>
    <linearGradient id="paint0_linear_1_19" x1="73.1206" y1="-26.1582" x2="45.7972" y2="81.187" gradientUnits="userSpaceOnUse">
      <stop stop-color="#002772"/>
      <stop offset="1" stop-color="#3F81FF"/>
    </linearGradient>
    <linearGradient id="paint1_linear_1_19" x1="64.981" y1="9.59192" x2="45.7972" y2="81.187" gradientUnits="userSpaceOnUse">
      <stop stop-color="#FFF82E"/>
      <stop offset="1" stop-color="#FFFB7A"/>
    </linearGradient>
    <linearGradient id="paint2_linear_1_19" x1="64.981" y1="9.59192" x2="45.7972" y2="81.187" gradientUnits="userSpaceOnUse">
      <stop stop-color="#256CF5"/>
      <stop offset="1" stop-color="#6498FA"/>
    </linearGradient>
  </defs>
</svg>