<svg xmlns="http://www.w3.org/2000/svg" viewBox="0 0 800 800">
  <defs>
    <radialGradient id="sunburstGradient" cx="50%" cy="50%" r="50%" fx="50%" fy="50%">
      <stop offset="0%" style="stop-color:rgba(255,255,255,0.2);stop-opacity:1" />
      <stop offset="100%" style="stop-color:rgba(255,255,255,0);stop-opacity:1" />
    </radialGradient>
  </defs>
  <g transform="translate(400,400)">
    <!-- Manually generate 24 rays -->
    <path d="M 0 0 L 400 -30 L 400 30 Z" fill="url(#sunburstGradient)" transform="rotate(0)" style="opacity: 0.4" />
    <path d="M 0 0 L 400 -30 L 400 30 Z" fill="url(#sunburstGradient)" transform="rotate(15)" style="opacity: 0.4" />
    <path d="M 0 0 L 400 -30 L 400 30 Z" fill="url(#sunburstGradient)" transform="rotate(30)" style="opacity: 0.4" />
    <path d="M 0 0 L 400 -30 L 400 30 Z" fill="url(#sunburstGradient)" transform="rotate(45)" style="opacity: 0.4" />
    <path d="M 0 0 L 400 -30 L 400 30 Z" fill="url(#sunburstGradient)" transform="rotate(60)" style="opacity: 0.4" />
    <path d="M 0 0 L 400 -30 L 400 30 Z" fill="url(#sunburstGradient)" transform="rotate(75)" style="opacity: 0.4" />
    <path d="M 0 0 L 400 -30 L 400 30 Z" fill="url(#sunburstGradient)" transform="rotate(90)" style="opacity: 0.4" />
    <path d="M 0 0 L 400 -30 L 400 30 Z" fill="url(#sunburstGradient)" transform="rotate(105)" style="opacity: 0.4" />
    <path d="M 0 0 L 400 -30 L 400 30 Z" fill="url(#sunburstGradient)" transform="rotate(120)" style="opacity: 0.4" />
    <path d="M 0 0 L 400 -30 L 400 30 Z" fill="url(#sunburstGradient)" transform="rotate(135)" style="opacity: 0.4" />
    <path d="M 0 0 L 400 -30 L 400 30 Z" fill="url(#sunburstGradient)" transform="rotate(150)" style="opacity: 0.4" />
    <path d="M 0 0 L 400 -30 L 400 30 Z" fill="url(#sunburstGradient)" transform="rotate(165)" style="opacity: 0.4" />
    <path d="M 0 0 L 400 -30 L 400 30 Z" fill="url(#sunburstGradient)" transform="rotate(180)" style="opacity: 0.4" />
    <path d="M 0 0 L 400 -30 L 400 30 Z" fill="url(#sunburstGradient)" transform="rotate(195)" style="opacity: 0.4" />
    <path d="M 0 0 L 400 -30 L 400 30 Z" fill="url(#sunburstGradient)" transform="rotate(210)" style="opacity: 0.4" />
    <path d="M 0 0 L 400 -30 L 400 30 Z" fill="url(#sunburstGradient)" transform="rotate(225)" style="opacity: 0.4" />
    <path d="M 0 0 L 400 -30 L 400 30 Z" fill="url(#sunburstGradient)" transform="rotate(240)" style="opacity: 0.4" />
    <path d="M 0 0 L 400 -30 L 400 30 Z" fill="url(#sunburstGradient)" transform="rotate(255)" style="opacity: 0.4" />
    <path d="M 0 0 L 400 -30 L 400 30 Z" fill="url(#sunburstGradient)" transform="rotate(270)" style="opacity: 0.4" />
    <path d="M 0 0 L 400 -30 L 400 30 Z" fill="url(#sunburstGradient)" transform="rotate(285)" style="opacity: 0.4" />
    <path d="M 0 0 L 400 -30 L 400 30 Z" fill="url(#sunburstGradient)" transform="rotate(300)" style="opacity: 0.4" />
    <path d="M 0 0 L 400 -30 L 400 30 Z" fill="url(#sunburstGradient)" transform="rotate(315)" style="opacity: 0.4" />
    <path d="M 0 0 L 400 -30 L 400 30 Z" fill="url(#sunburstGradient)" transform="rotate(330)" style="opacity: 0.4" />
    <path d="M 0 0 L 400 -30 L 400 30 Z" fill="url(#sunburstGradient)" transform="rotate(345)" style="opacity: 0.4" />
  </g>
</svg>